<?xml version="1.0" encoding="iso-8859-1"?>
<!-- Generator: Hand-crafted, deeply imaginative SVG logic (Pixie Dust - Dynamic Pop-out). -->
<svg version="1.1" id="Layer_1" xmlns="http://www.w3.org/2000/svg" xmlns:xlink="http://www.w3.org/1999/xlink" x="0px" y="0px"
	 viewBox="-44 -44 600 600" style="enable-background:new 0 0 512 512;" xml:space="preserve">

<!-- Circular backdrop: Deep night blue/teal for contrast to the bright dust -->
<path style="fill:#384E64;" d="M512 256c0 141.385-114.615 256-256 256S0 397.385 0 256 114.615 0 256 0s256 114.615 256 256z"/>

<!-- The Main Object: A massive, glowing crescent / fairy wing swooping out of bounds -->

<!-- Deep Purple Shadow/Backbone of Crescent -->
<path style="fill:#3D1E62;" d="M 100 500 C -150 256, 150 -50, 400 -50 C 150 100, 50 350, 100 500 Z"/>

<!-- Magenta Mid-Layer of Crescent -->
<path style="fill:#9C2A7D;" d="M 120 480 C -100 256, 180 0, 380 -30 C 180 120, 80 340, 120 480 Z"/>

<!-- Bright Cyan Core of Crescent Building High-Tech Flow -->
<path style="fill:#1E9682;" d="M 140 450 C -50 256, 200 40, 360 -10 C 200 140, 110 320, 140 450 Z"/>

<!-- Intense Bright Center Glow of Crescent -->
<path style="fill:#B4FFFA;" d="M 150 420 C -10 256, 210 70, 340 10 C 210 150, 130 300, 150 420 Z"/>
<path style="fill:#E1FFFA;" d="M 160 380 C 40 256, 220 100, 310 40 C 220 160, 150 280, 160 380 Z"/>

<!-- Dynamic Colorful Pixie Dust Stars breaking out dramatically! -->
<!-- Star Definition: Standard stylized 4-point star/sparkle -->
<g>
  <!-- Huge Yellow Star exploding Right (Breaks Circle Completely) -->
  <g transform="translate(480, 100) scale(1.5)">
    <path style="fill:#FFF9C8;" d="M 0 -30 Q 15 -5 30 0 Q 15 5 0 30 Q -15 5 -30 0 Q -15 -5 0 -30 Z"/>
    <path style="fill:#FFEB50;" d="M 0 -20 Q 8 0 20 0 Q 8 0 0 20 Q -8 0 -20 0 Q -8 0 0 -20 Z"/>
  </g>

  <!-- Large Magenta Star Top Right (Breaks top bound) -->
  <g transform="translate(380, -20) scale(1.2)">
    <path style="fill:#FF8BE2;" d="M 0 -30 Q 15 -5 30 0 Q 15 5 0 30 Q -15 5 -30 0 Q -15 -5 0 -30 Z"/>
    <path style="fill:#D942A6;" d="M 0 -20 Q 8 0 20 0 Q 8 0 0 20 Q -8 0 -20 0 Q -8 0 0 -20 Z"/>
  </g>

  <!-- Large Cyan Star Left (Floating over dark part of circle) -->
  <g transform="translate(40, 200) scale(1.3)">
    <path style="fill:#E1FFFA;" d="M 0 -30 Q 15 -5 30 0 Q 15 5 0 30 Q -15 5 -30 0 Q -15 -5 0 -30 Z"/>
    <path style="fill:#82E1E1;" d="M 0 -20 Q 8 0 20 0 Q 8 0 0 20 Q -8 0 -20 0 Q -8 0 0 -20 Z"/>
  </g>
  
  <!-- Medium Yellow Star Bottom Right (Trailing and bleeding) -->
  <g transform="translate(400, 420) scale(1.1)">
    <path style="fill:#FFF573;" d="M 0 -30 Q 15 -5 30 0 Q 15 5 0 30 Q -15 5 -30 0 Q -15 -5 0 -30 Z"/>
  </g>

  <!-- Medium Pink Star Lower Center -->
  <g transform="translate(250, 350)">
    <path style="fill:#FF8BE2;" d="M 0 -30 Q 15 -5 30 0 Q 15 5 0 30 Q -15 5 -30 0 Q -15 -5 0 -30 Z"/>
  </g>

  <!-- Medium Cyan Star Top Center -->
  <g transform="translate(220, 100) scale(0.8)">
    <path style="fill:#B4FFFA;" d="M 0 -30 Q 15 -5 30 0 Q 15 5 0 30 Q -15 5 -30 0 Q -15 -5 0 -30 Z"/>
  </g>

  <!-- Lots of small scattered colored dust/sparkling dots -->
  <!-- Floating wildly outside the right boundary -->
  <ellipse cx="500" cy="200" rx="8" ry="8" fill="#FFF573"/>
  <ellipse cx="520" cy="280" rx="5" ry="5" fill="#FF8BE2"/>
  <ellipse cx="450" cy="320" rx="10" ry="10" fill="#82E1E1"/>
  <ellipse cx="480" cy="380" rx="6" ry="6" fill="#FFF573"/>

  <!-- Dust floating top boundary -->
  <ellipse cx="280" cy="-30" rx="6" ry="6" fill="#FF8BE2"/>
  <ellipse cx="180" cy="-10" rx="8" ry="8" fill="#82E1E1"/>
  <ellipse cx="450" cy="40" rx="12" ry="12" fill="#FFF573"/>

  <!-- Dust bottom/left trailing -->
  <ellipse cx="0" cy="280" rx="6" ry="6" fill="#FFF9C8"/>
  <ellipse cx="30" cy="380" rx="9" ry="9" fill="#FF8BE2"/>
  <ellipse cx="220" cy="480" rx="7" ry="7" fill="#82E1E1"/>
  <ellipse cx="320" cy="450" rx="10" ry="10" fill="#FFF573"/>

  <!-- Inner concentrated dust over the main object -->
  <ellipse cx="200" cy="220" rx="12" ry="12" fill="#FFFFFF"/>
  <ellipse cx="280" cy="280" rx="15" ry="15" fill="#FFFFFF"/>
  <ellipse cx="350" cy="220" rx="9" ry="9" fill="#FFF9C8"/>
  <ellipse cx="140" cy="150" rx="8" ry="8" fill="#FFFFFF"/>
</g>

<!-- Glass Reflection / Specular highlight swooping across the composition -->
<polygon fill="#FFFFFF" points="80,-50 180,-50 350,500 250,500" opacity="0.08"/>
<polygon fill="#FFFFFF" points="50,500 256,500 450,-50 250,-50" opacity="0.05"/>

</svg>
